<svg xmlns="http://www.w3.org/2000/svg" width="819.6" height="683.7"><path fill="#978c83" d="M4.7 0C2.1 0 .1 2 0 4.6V679c0 2.6 2 4.7 4.7 4.7h810.2c2.6 0 4.7-2.1 4.7-4.7V4.6c0-2.5-2-4.6-4.7-4.6H4.7zm718.4 549.3a5.8 5.8 0 0 1-5 5.2S597.7 568 409.9 568c-187.8 0-306-13.5-306-13.5a5.8 5.8 0 0 1-5-5.2s-4.4-63.2-4.4-221.5c0-158.4 4.4-221.6 4.4-221.6.1-2.5 2.4-5 5-5.4 0 0 68.3-11 306-11s308.4 11 308.4 11c2.6.4 4.8 2.9 5 5.4 0 0 6.6 107.1 6.6 221.6 0 114.4-6.7 221.5-6.7 221.5h-.1z"/><path fill="none" stroke="#000" stroke-miterlimit="10" d="M4.7 0C2.1 0 .1 2 0 4.6V679c0 2.6 2 4.7 4.7 4.7h810.2c2.6 0 4.7-2.1 4.7-4.7V4.6c0-2.5-2-4.6-4.7-4.6H4.7zm718.4 549.3a5.8 5.8 0 0 1-5 5.2S597.7 568 409.9 568c-187.8 0-306-13.5-306-13.5a5.8 5.8 0 0 1-5-5.2s-4.4-63.2-4.4-221.5c0-158.4 4.4-221.6 4.4-221.6.1-2.5 2.4-5 5-5.4 0 0 68.3-11 306-11s308.4 11 308.4 11c2.6.4 4.8 2.9 5 5.4 0 0 6.6 107.1 6.6 221.6 0 114.4-6.7 221.5-6.7 221.5h-.1z"/><path fill="#7a726a" d="M29.8 32.9a9.4 9.4 0 0 0-9.3 9.4v568.5c0 5.1 4.2 9.3 9.3 9.3h760c5.1 0 9.3-4.2 9.3-9.3V42.3c0-5.2-4.2-9.4-9.3-9.4H29.7h.1zm693.6 511.9c-.3 5.1-4.8 9.8-9.9 10.3 0 0-115.9 13-303.7 13-187.8 0-301.4-13-301.4-13-5.1-.5-9.6-5.2-10-10.3 0 0-4-58.6-4-217 0-158.3 4-216.8 4-216.8.4-5.1 4.8-10 10-10.8 0 0 63.7-10.2 301.4-10.2s303.8 10.2 303.8 10.2c5 .8 9.5 5.7 9.8 10.8 0 0 6.4 102.4 6.4 216.9 0 114.4-6.4 216.9-6.4 216.9z"/><path fill="none" stroke="#000" stroke-miterlimit="10" d="M29.8 32.9a9.4 9.4 0 0 0-9.3 9.4v568.5c0 5.1 4.2 9.3 9.3 9.3h760c5.1 0 9.3-4.2 9.3-9.3V42.3c0-5.2-4.2-9.4-9.3-9.4H29.7h.1zm693.6 511.9c-.3 5.1-4.8 9.8-9.9 10.3 0 0-115.9 13-303.7 13-187.8 0-301.4-13-301.4-13-5.1-.5-9.6-5.2-10-10.3 0 0-4-58.6-4-217 0-158.3 4-216.8 4-216.8.4-5.1 4.8-10 10-10.8 0 0 63.7-10.2 301.4-10.2s303.8 10.2 303.8 10.2c5 .8 9.5 5.7 9.8 10.8 0 0 6.4 102.4 6.4 216.9 0 114.4-6.4 216.9-6.4 216.9z"/><path fill="#978c83" stroke="#000" stroke-miterlimit="10" d="M0 620.1h287.2v63.5H0v-63.5zm682.8 0h60.3v63.5h-60.3v-63.5z"/><path fill="#72ff00" d="M704.3 635h17.2v6.8h-17.2V635z"/><path fill="none" stroke="#000" stroke-miterlimit="10" stroke-width=".5" d="M13.2 651.9h104.6v22H13.2v-22z"/><path d="M702.1 661.8a3 3 0 0 1-2 .5h-1.4v2.7h-1.6v-7.6h3.3c.7 0 1.3.2 1.8.6.4.4.7 1 .7 1.8 0 1-.3 1.6-.7 2h-.1zm-1.2-2.8c-.2-.2-.5-.3-.9-.3h-1.3v2.3h1.4c.4 0 .7-.1.9-.3.2-.2.3-.5.3-.9s-.1-.6-.3-.8h-.1zm7.8 5.4c-.6.5-1.3.8-2.3.8s-1.7-.3-2.1-.8c-.5-.6-.7-1.3-.7-2.2 0-.8.2-1.5.7-2 .4-.7 1.2-1 2.1-1 1 0 1.7.3 2.2 1 .5.5.7 1.2.7 2 0 .9-.2 1.6-.7 2.2h.1zm-1.3-.9c.3-.3.4-.7.4-1.3 0-.5-.1-1-.4-1.3-.2-.3-.5-.4-1-.4-.4 0-.7.1-1 .4-.2.3-.3.8-.3 1.3 0 .6.1 1 .3 1.3.3.3.6.5 1 .5.5 0 .8-.2 1-.5zm5.6-4.1h1.5l.9 4 .9-4h1.5l-1.6 5.6h-1.5l-1-4-.8 4h-1.6l-1.5-5.6h1.5l1 4 .7-4zm9.3.1c.8.4 1.3 1.1 1.4 2v1.1h-4c0 .6.2 1 .6 1.2.2.2.4.2.8.2.3 0 .6 0 .8-.2l.3-.4h1.5c0 .3-.2.7-.6 1-.5.6-1.2.8-2 .8a3 3 0 0 1-2-.7c-.6-.4-1-1.2-1-2.2s.3-1.7.9-2.3c.5-.5 1.1-.7 2-.7.5 0 .9 0 1.3.2zm-2.2 1.3c-.2.2-.3.5-.4.9h2.5c0-.4-.1-.7-.4-1l-.8-.2c-.4 0-.7 0-1 .3h.1zm7.6-1.5v1.5h-.4c-.5 0-1 .2-1.1.5-.2.3-.2.6-.2 1v2.7h-1.5v-5.6h1.4v1l.6-.8c.3-.2.7-.3 1.1-.3h.1z"/><path fill="#025" d="M349.7 646.5a11.4 11.4 0 1 0 3.5 22.2V663a7 7 0 0 1-3.2.9 6.1 6.1 0 0 1-6.3-6 6 6 0 0 1 6.3-6c1.1 0 2.2.3 3.2.8V647c-1.1-.3-2.3-.5-3.5-.5zm3.6 7h8.4l-3.7 4h-4.7v-4z"/><path fill="red" d="M353.3 662.2h8.4l-3.7-3.9h-4.7v3.9z"/><path fill="#025" d="M381.1 664.8c1.7 0 3-.5 4-1.4 1.1-1 1.7-2.2 1.7-3.8 0-1.6-.6-3-1.6-3.8-1-.9-2.4-1.3-4.1-1.4-1.7 0-3 .5-4 1.4a4.7 4.7 0 0 0-1.7 3.8 5 5 0 0 0 1.6 3.8 6 6 0 0 0 4.1 1.3v.1zm0-2.5a2 2 0 0 1-1.7-.8c-.3-.5-.5-1.2-.5-1.9 0-.8.2-1.4.5-2 .4-.5 1-.8 1.7-.8.8 0 1.3.3 1.7.9.3.5.5 1.1.5 1.9 0 .7-.2 1.4-.5 2-.4.4-1 .7-1.7.7zm7.1 2.2h3.4v-4.1c0-1.1.2-1.9.5-2.4s.8-.7 1.4-.7c.5 0 .8.2 1 .5s.4.9.4 1.4v5.3h3.4v-4.1c0-1.1.1-1.9.5-2.4.3-.5.8-.7 1.4-.7.5 0 .8.2 1 .5.2.4.3.9.3 1.4v5.3h3.4v-5.8c0-1.3-.2-2.4-.6-3.1-.5-.8-1.5-1.1-2.8-1.1-.7 0-1.4 0-2 .4a4 4 0 0 0-1.5 1.4 4 4 0 0 0-1.2-1.4c-.6-.3-1.2-.5-1.9-.4-.8 0-1.5.1-2.1.4-.6.4-1.1.9-1.5 1.6v-1.8h-3.1v9.8zm18.5 0h3.5v-4.1c0-1.1.1-1.9.5-2.4.3-.5.8-.7 1.4-.7.5 0 .8.2 1 .5.2.4.3.9.3 1.4v5.3h3.4v-4.1c0-1.1.2-1.9.5-2.4.4-.5.8-.7 1.5-.7.4 0 .8.2 1 .5.2.4.3.9.3 1.4v5.3h3.4v-5.8c0-1.3-.2-2.4-.7-3.1-.4-.8-1.4-1.1-2.8-1.1-.7 0-1.3 0-2 .4-.5.3-1 .8-1.4 1.4-.3-.6-.7-1-1.3-1.4-.5-.3-1.1-.5-1.8-.4-.8 0-1.5.1-2.1.4-.7.4-1.2.9-1.5 1.6v-1.8h-3.2v9.8zm23.9.3c1.6 0 3-.5 4-1.4 1.1-1 1.7-2.2 1.7-3.8 0-1.6-.6-3-1.6-3.8a7 7 0 0 0-4.1-1.4c-1.7 0-3 .5-4 1.4a4.7 4.7 0 0 0-1.7 3.8 5 5 0 0 0 1.6 3.8c1 .9 2.4 1.3 4 1.3l.1.1zm0-2.5a2 2 0 0 1-1.7-.8c-.3-.5-.5-1.2-.5-1.9 0-.8.2-1.4.5-2 .4-.5 1-.8 1.7-.8.8 0 1.3.3 1.7.9.3.5.5 1.1.5 1.9 0 .7-.2 1.4-.5 2-.4.4-1 .7-1.7.7zm17.6-11.9h-3.4v5.5c-.5-.5-1-1-1.5-1.1a4 4 0 0 0-1.9-.4c-1.4.1-2.4.6-3.1 1.6-.7 1-1 2.1-1.1 3.4a6 6 0 0 0 1.1 3.8 4 4 0 0 0 3.4 1.5 4 4 0 0 0 2.1-.6 3 3 0 0 0 1.3-1.4v1.8h3.1v-14.1zm-7.5 9c0-.6.2-1.2.5-1.6.4-.5.9-.7 1.6-.7.6 0 1.1.2 1.5.7.3.4.5 1 .5 1.8 0 .7-.2 1.3-.6 1.8a2 2 0 0 1-1.4.7c-.7 0-1.2-.2-1.5-.7a3 3 0 0 1-.6-2zm14.5 5.4c1.7 0 3-.5 4.1-1.4 1-1 1.6-2.2 1.6-3.8 0-1.6-.5-3-1.6-3.8-1-.9-2.4-1.3-4-1.4-1.7 0-3 .5-4.1 1.4-1 .9-1.6 2.2-1.7 3.8 0 1.6.6 2.9 1.7 3.8 1 .9 2.4 1.3 4 1.3v.1zm0-2.5c-.7 0-1.3-.3-1.7-.8-.3-.5-.5-1.2-.5-1.9 0-.8.2-1.4.5-2 .4-.5 1-.8 1.7-.8.8 0 1.4.3 1.7.9.4.5.5 1.1.5 1.9 0 .7-.1 1.4-.5 2-.3.4-.9.7-1.7.7zm14.3-7.7l-1.1-.1c-.8 0-1.4.1-1.8.5-.5.4-.9.9-1.1 1.5v-1.8h-3.2v9.8h3.4v-4.1c0-1 .2-1.8.7-2.3.4-.5 1-.8 1.8-.8h1.1l.2-2.7zm10.7 6v-.6c0-1.6-.4-2.8-1.2-3.9-.7-1-2-1.6-3.8-1.7-1.6 0-2.8.5-3.8 1.4a5 5 0 0 0-1.5 3.8c0 1.6.6 2.9 1.7 3.8 1 .9 2.4 1.3 4 1.3a11 11 0 0 0 3.7-.6v-2.4c-1 .5-2 .8-3 .8-.9 0-1.5-.2-2-.5a2 2 0 0 1-1-1.4h6.9zm-6.9-2c0-.5.2-1 .5-1.4.4-.4.8-.6 1.4-.6.7 0 1.2.2 1.5.6.3.4.4.9.4 1.5h-3.8v-.1zm-105.2 6a7 7 0 0 1-3.5-2.1 6 6 0 0 1-1.6-3.6 7 7 0 0 1 3.5-7.6c1.4-.7 3.3-1 5-1 1.2 0 2.2.2 3.2.4l-.4 2.9-.8-.2a7 7 0 0 0-2-.3c-1.2 0-2.5.4-3.3 1-1.9 1.5-1.8 5.3 0 6.9 1.3 1 3.5 1.3 5.4.8l1-.2.2 3c-.6 0-1.8.3-3.3.3a10 10 0 0 1-3.4-.3z"/><g fill="none" stroke="#000" stroke-miterlimit="10"><circle cx="712.9" cy="674.2" r="4.7"/><path stroke-linecap="round" d="M712.9 671.8v4.9"/></g><g stroke="#000" stroke-linecap="round" stroke-linejoin="round" stroke-miterlimit="10"><path fill="#978c83" d="M99.1 101.6s73-11.8 310.6-11.8c237.6 0 313 11.7 313 11.7l24.4-23.7H72.5l26.6 23.7v.1z"/><path fill="#736b64" d="M729.8 327.8c0 114.4-7 226.2-7 226.2l24.3 24V78l-24.3 23.6s7 111.7 7 226.2zM99.1 554s-4.7-67.9-4.7-226.2c0-158.4 4.7-226.2 4.7-226.2L72.5 77.8V578l26.6-24z"/><path fill="#978c83" d="M722.8 554s-125.2 14-313 14-310.7-14-310.7-14l-26.6 24h674.6l-24.3-24z"/></g><path fill="none" stroke="#000" stroke-linecap="round" stroke-linejoin="round" stroke-miterlimit="10" d="M786.1 620.1h33.5"/><g><path fill="#025" d="M38.1 659.3l.5-2.4 2.3-.2a4.7 4.7 0 0 0 3-2.2l.2-.7h3l-3.8 17.9h-3.6l2.6-12.4h-4.2zm24.2 3.5c-.7 3-1.6 5.3-2.9 7a6.5 6.5 0 0 1-5.3 2.3c-2.3 0-3.7-.8-4.3-2.4a13 13 0 0 1 .1-6.8 17 17 0 0 1 2.8-6.9c1.3-1.6 3-2.4 5.4-2.4 2.2 0 3.7.8 4.2 2.4.6 1.6.6 4 0 6.9v-.1zm-7.6 6.4c1 0 1.9-.5 2.4-1.6.6-1 1-2.7 1.5-4.7.5-2.2.7-3.8.6-4.8s-.7-1.6-1.8-1.6c-1 0-1.8.5-2.4 1.6a23 23 0 0 0-2 9.5c.1 1.1.7 1.6 1.7 1.6zm11.5-7.1a3 3 0 0 1-1.3-1.8 5 5 0 0 1 0-2c.3-1.2 1-2.3 2.2-3.3a7 7 0 0 1 4.6-1.2c1.7 0 3 .4 3.8 1.3.8 1 1 2 .8 3.4a5 5 0 0 1-2.8 3.6 4.2 4.2 0 0 1 1.5 4.7c-.3 1.5-1.2 3-2.4 3.9-1.3 1-3 1.5-5 1.5s-3.4-.5-4.2-1.5c-.8-1.1-1-2.4-.8-3.9.3-1 .7-2 1.3-2.7.6-.8 1.4-1.5 2.4-1.9l-.1-.1zm2 7.1a3 3 0 0 0 2-.7c.7-.5 1-1.2 1.2-2 .2-1 .1-1.6-.2-2.1-.4-.5-1-.7-1.8-.7a3 3 0 0 0-3.1 2.7c-.2 1-.2 1.6.2 2.1s1 .7 1.7.7zM70 661c1.3 0 2.5-1 2.7-2.2.2-.7.1-1.3-.2-1.7-.3-.4-.8-.6-1.6-.6-.7 0-1.3.2-1.7.6-.5.4-.8 1-1 1.7-.1.6 0 1.1.3 1.6.3.4.8.6 1.5.6zm18.5 6.8h-2l-.9 3.9h-3.4l.8-3.9h-7.1l.6-3 9-11h3.9L87 665.1h2l-.5 2.7zm-5-2.7l1.7-7.8-6.1 7.8h4.5-.1z"/></g></svg>